# xmcd
#
# Track frame offsets: 
#        150
#        22266
#        41580
#        59779
#        75702
#        93026
#        109327
#        126102
#        142119
#        156006
#        174533
#        199537
#        225795
#
# Disc length: 3148 seconds
#
# Revision: 0
# Processed by: cddbd v1.5.2PL0 Copyright (c) Steve Scherf et al.
# Submitted via: ExactAudioCopy v0.95a4
#
DISCID=aa0c4a0d
DTITLE=Corey Harris - Free Water Way
DYEAR=2018
DGENRE=Blues
TTITLE0=Mama Africa
TTITLE1=Ark Of The Covenant
TTITLE2=I Have A Mansion
TTITLE3=What Did Marcus Say?
TTITLE4=Watching You
TTITLE5=Red Man
TTITLE6=Free Waterway
TTITLE7=I Can't Breathe
TTITLE8=World Would Have Been Better
TTITLE9=Black Maria
TTITLE10=My Lord
TTITLE11=John The Revelator
TTITLE12=Bajourou
EXTD=
EXTT0=
EXTT1=
EXTT2=
EXTT3=
EXTT4=
EXTT5=
EXTT6=
EXTT7=
EXTT8=
EXTT9=
EXTT10=
EXTT11=
EXTT12=
PLAYORDER=
